<svg width="377" height="217" viewBox="0 0 377 217" fill="none" xmlns="http://www.w3.org/2000/svg">
<g clip-path="url(#clip0_142_1220)">
<rect width="377" height="217" rx="10" fill="#2A2A2A" fill-opacity="0.95"/>
<circle cx="348" cy="76" r="79" fill="#FAFAFA" fill-opacity="0.25"/>
<circle cx="248" cy="25" r="79" fill="#FAFAFA" fill-opacity="0.25"/>
<path d="M331.62 22.832L327.524 34H324.804L320.708 22.832H323.108L326.18 31.712L329.236 22.832H331.62ZM335.203 22.832V34H332.963V22.832H335.203ZM341.273 34.112C340.494 34.112 339.79 33.9787 339.161 33.712C338.542 33.4453 338.051 33.0613 337.689 32.56C337.326 32.0587 337.139 31.4667 337.129 30.784H339.529C339.561 31.2427 339.721 31.6053 340.009 31.872C340.307 32.1387 340.713 32.272 341.225 32.272C341.747 32.272 342.158 32.1493 342.457 31.904C342.755 31.648 342.905 31.3173 342.905 30.912C342.905 30.5813 342.803 30.3093 342.601 30.096C342.398 29.8827 342.142 29.7173 341.833 29.6C341.534 29.472 341.118 29.3333 340.585 29.184C339.859 28.9707 339.267 28.7627 338.809 28.56C338.361 28.3467 337.971 28.032 337.641 27.616C337.321 27.1893 337.161 26.624 337.161 25.92C337.161 25.2587 337.326 24.6827 337.657 24.192C337.987 23.7013 338.451 23.328 339.049 23.072C339.646 22.8053 340.329 22.672 341.097 22.672C342.249 22.672 343.182 22.9547 343.897 23.52C344.622 24.0747 345.022 24.8533 345.097 25.856H342.633C342.611 25.472 342.446 25.1573 342.137 24.912C341.838 24.656 341.438 24.528 340.937 24.528C340.499 24.528 340.147 24.64 339.881 24.864C339.625 25.088 339.497 25.4133 339.497 25.84C339.497 26.1387 339.593 26.3893 339.785 26.592C339.987 26.784 340.233 26.944 340.521 27.072C340.819 27.1893 341.235 27.328 341.769 27.488C342.494 27.7013 343.086 27.9147 343.545 28.128C344.003 28.3413 344.398 28.6613 344.729 29.088C345.059 29.5147 345.225 30.0747 345.225 30.768C345.225 31.3653 345.07 31.92 344.76 32.432C344.451 32.944 343.998 33.3547 343.401 33.664C342.803 33.9627 342.094 34.112 341.273 34.112ZM354.015 31.872H349.567L348.831 34H346.479L350.495 22.816H353.103L357.119 34H354.751L354.015 31.872ZM353.407 30.08L351.791 25.408L350.174 30.08H353.407Z" fill="#FAFAFA"/>
<rect x="303.4" y="159.4" width="41.2" height="30.2" rx="6.6" fill="#FAFAFA" fill-opacity="0.23"/>
<rect x="303.4" y="159.4" width="41.2" height="30.2" rx="6.6" stroke="#FAFAFA" stroke-width="0.8"/>
<path d="M332.5 160V172.5V189.5" stroke="#FAFAFA" stroke-width="0.8"/>
<path d="M304 170.5H315.5V176M315.5 189V182M304 176H309.5H315.5M315.5 176V182M304 182H309.5H315.5M332.5 165.5H345" stroke="#FAFAFA" stroke-width="0.7"/>
<path d="M332.5 171H345" stroke="#FAFAFA" stroke-width="0.7"/>
<path d="M332.5 176.5H340.5H345" stroke="#FAFAFA" stroke-width="0.7"/>
<path d="M332.5 182H345" stroke="#FAFAFA" stroke-width="0.7"/>
</g>
<defs>
<clipPath id="clip0_142_1220">
<rect width="377" height="217" rx="10" fill="white"/>
</clipPath>
</defs>
</svg>
